<svg xmlns="http://www.w3.org/2000/svg" width="490.6" height="436.9" viewBox="0 0 490.6 436.9"><g transform="translate(-175.7 -78)"><path d="M666.3,296.5c0-32.5-40.7-63.3-103.1-82.4,14.4-63.6,8-114.2-20.2-130.4a43.843,43.843,0,0,0-22.4-5.6v22.3A23.156,23.156,0,0,1,532,103c13.6,7.8,19.5,37.5,14.9,75.7-1.1,9.4-2.9,19.3-5.1,29.4a484.618,484.618,0,0,0-63.5-10.9,487.776,487.776,0,0,0-41.6-50c32.6-30.3,63.2-46.9,84-46.9V78c-27.5,0-63.5,19.6-99.9,53.6-36.4-33.8-72.4-53.2-99.9-53.2v22.3c20.7,0,51.4,16.5,84,46.6a472.331,472.331,0,0,0-41.3,49.9,466.972,466.972,0,0,0-63.6,11c-2.3-10-4-19.7-5.2-29-4.7-38.2,1.1-67.9,14.6-75.8,3-1.8,6.9-2.6,11.5-2.6V78.5a44.589,44.589,0,0,0-22.6,5.6c-28.1,16.2-34.4,66.7-19.9,130.1-62.2,19.2-102.7,49.9-102.7,82.3,0,32.5,40.7,63.3,103.1,82.4-14.4,63.6-8,114.2,20.2,130.4,6.5,3.8,14.1,5.6,22.5,5.6,27.5,0,63.5-19.6,99.9-53.6,36.4,33.8,72.4,53.2,99.9,53.2a44.587,44.587,0,0,0,22.6-5.6c28.1-16.2,34.4-66.7,19.9-130.1,62-19.1,102.5-49.9,102.5-82.3ZM536.1,229.8c-3.7,12.9-8.3,26.2-13.5,39.5-4.1-8-8.4-16-13.1-24-4.6-8-9.5-15.8-14.4-23.4,14.2,2.1,27.9,4.7,41,7.9ZM490.3,336.3c-7.8,13.5-15.8,26.3-24.1,38.2-14.9,1.3-30,2-45.2,2-15.1,0-30.2-.7-45-1.9q-12.45-17.85-24.2-38-11.4-19.65-20.8-39.8c6.2-13.4,13.2-26.8,20.7-39.9,7.8-13.5,15.8-26.3,24.1-38.2,14.9-1.3,30-2,45.2-2,15.1,0,30.2.7,45,1.9q12.45,17.85,24.2,38,11.4,19.65,20.8,39.8c-6.3,13.4-13.2,26.8-20.7,39.9Zm32.3-13c5.4,13.4,10,26.8,13.8,39.8-13.1,3.2-26.9,5.9-41.2,8,4.9-7.7,9.8-15.6,14.4-23.7,4.6-8,8.9-16.1,13-24.1ZM421.2,430a412.307,412.307,0,0,1-27.8-32c9,.4,18.2.7,27.5.7,9.4,0,18.7-.2,27.8-.7a390.354,390.354,0,0,1-27.5,32Zm-74.4-58.9c-14.2-2.1-27.9-4.7-41-7.9,3.7-12.9,8.3-26.2,13.5-39.5,4.1,8,8.4,16,13.1,24s9.5,15.8,14.4,23.4ZM420.7,163a412.279,412.279,0,0,1,27.8,32c-9-.4-18.2-.7-27.5-.7-9.4,0-18.7.2-27.8.7a390.346,390.346,0,0,1,27.5-32Zm-74,58.9c-4.9,7.7-9.8,15.6-14.4,23.7-4.6,8-8.9,16-13,24-5.4-13.4-10-26.8-13.8-39.8,13.1-3.1,26.9-5.8,41.2-7.9ZM256.2,347.1c-35.4-15.1-58.3-34.9-58.3-50.6s22.9-35.6,58.3-50.6c8.6-3.7,18-7,27.7-10.1a480.32,480.32,0,0,0,22.5,60.9,473.5,473.5,0,0,0-22.2,60.6c-9.9-3.1-19.3-6.5-28-10.2ZM310,490c-13.6-7.8-19.5-37.5-14.9-75.7,1.1-9.4,2.9-19.3,5.1-29.4a484.61,484.61,0,0,0,63.5,10.9,487.794,487.794,0,0,0,41.6,50c-32.6,30.3-63.2,46.9-84,46.9A23.865,23.865,0,0,1,310,490Zm237.2-76.2c4.7,38.2-1.1,67.9-14.6,75.8-3,1.8-6.9,2.6-11.5,2.6-20.7,0-51.4-16.5-84-46.6a472.306,472.306,0,0,0,41.3-49.9,466.983,466.983,0,0,0,63.6-11,279.955,279.955,0,0,1,5.2,29.1Zm38.5-66.7c-8.6,3.7-18,7-27.7,10.1a480.3,480.3,0,0,0-22.5-60.9,473.513,473.513,0,0,0,22.2-60.6c9.9,3.1,19.3,6.5,28.1,10.2,35.4,15.1,58.3,34.9,58.3,50.6-.1,15.7-23,35.6-58.4,50.6ZM320.8,78.4Z" fill="#8b5cf6"/><circle cx="45.7" cy="45.7" r="45.7" transform="translate(375.2 250.8)" fill="#8b5cf6"/><path d="M520.5,78.1Z" fill="#8b5cf6"/></g></svg>